# xmcd
#
# Track frame offsets:
#	150
#	4157
#	11496
#	25121
#	39548
#	51608
#	58102
#	62205
#	73558
#	86258
#	100011
#	108319
#
# Disc length: 1520 seconds
#
# Revision: 1
# Processed by: cddbd v1.5.2PL0 Copyright (c) Steve Scherf et al.
# Submitted via: audiograbber 1.83.01
#
DISCID=9705ee0c
DTITLE=Johnny Cash - unseen CASH
DYEAR=2012
DGENRE=Country
TTITLE0=Stay All Night, Stay A Little Longer 
TTITLE1=There You Go
TTITLE2=Give My Love To Rose
TTITLE3=White Silver Sands
TTITLE4=Home Of The Blues
TTITLE5=Stay All Night, Stay A Little Longer 
TTITLE6=Intro
TTITLE7=I Got Stripes
TTITLE8=Pickin' Time
TTITLE9=Ten Years
TTITLE10=Swing Low Sweet Chariot
TTITLE11=Outro
EXTD=
EXTT0=
EXTT1=
EXTT2=
EXTT3=
EXTT4=
EXTT5=
EXTT6=
EXTT7=
EXTT8=
EXTT9=
EXTT10=
EXTT11=
PLAYORDER=
